<svg width="50" height="15" viewBox="0 0 50 15" fill="none" xmlns="http://www.w3.org/2000/svg">
<path d="M44.9418 7.68117L42.8803 9.59916L42.8125 9.54732C43.0478 8.67007 43.283 7.79681 43.5223 6.92354C44.1204 4.75035 44.7185 2.58115 45.3206 0.407953C45.3206 0.399978 45.3206 0.392003 45.3206 0.388016C45.3206 0.280353 45.3765 0.180665 45.4722 0.128828C45.6157 0.104903 45.6117 0.268391 45.6636 0.360103C45.9706 0.92633 46.2019 1.52844 46.5608 2.06676C46.8997 2.88818 47.2945 3.70562 47.7211 4.48319C47.773 4.56294 47.8049 4.65465 47.8049 4.75035C47.8049 4.91384 47.7211 5.06935 47.5816 5.15708C46.6844 5.99047 45.8151 6.8398 44.9418 7.68117Z" fill="#F07A25"/>
<path d="M44.9425 7.68106C45.8197 6.8397 46.689 5.99036 47.5782 5.16095C47.7178 5.07323 47.8015 4.91772 47.8015 4.75423C47.8015 4.65853 47.7736 4.56682 47.7178 4.48707C47.2871 3.7095 46.8963 2.89206 46.5574 2.07064L47.1715 0.00909424C47.4267 0.499558 47.638 0.902296 47.8414 1.30902C48.3558 2.33381 48.8582 3.36658 49.3925 4.38339C49.4643 4.48308 49.5002 4.6027 49.5002 4.72632C49.5002 4.92968 49.3965 5.12108 49.221 5.22874C47.7616 6.58051 46.3301 7.96417 44.8906 9.33588C44.7989 9.4555 44.6753 9.54721 44.5317 9.59506C44.7152 8.96902 44.8547 8.32704 44.9425 7.68106Z" fill="#0C8D48"/>
<path fill-rule="evenodd" clip-rule="evenodd" d="M12.6117 4.8528C12.9147 4.99236 13.1101 5.29541 13.1101 5.62637C13.1101 5.76195 13.0782 5.89752 13.0144 6.01715C12.7752 6.79471 12.5798 7.58424 12.3644 8.36579C12.3046 9.10747 11.6826 9.67768 10.9409 9.67768C10.8572 9.67768 10.7734 9.66971 10.6897 9.65774C7.39202 9.65774 4.09833 9.66173 0.800665 9.66572C0.541477 9.66572 0.445776 9.64179 0.529514 9.35071C1.37885 6.34014 2.21623 3.32957 3.04962 0.319001C3.06956 0.139563 3.22108 0 3.40052 0C3.41647 0 3.43641 0 3.45236 0.00398751C6.84573 0.0119625 10.2431 0.00797502 13.6365 0.01595C13.6843 0.00797502 13.7322 0 13.78 0C14.1588 0 14.4619 0.307038 14.4619 0.681864C14.4619 0.777564 14.4419 0.869277 14.4021 0.957002C14.1469 1.96185 13.8677 2.95873 13.5766 3.95561C13.4211 4.39423 13.0623 4.72918 12.6117 4.8528ZM0.988077 11.484H1.37487L1.01599 12.9833C0.964152 13.2066 0.972127 13.3741 1.04789 13.4858C1.11967 13.5974 1.25923 13.6532 1.4586 13.6532C1.65798 13.6532 1.81748 13.5974 1.94508 13.4858C2.07268 13.3741 2.16439 13.2066 2.21623 12.9833L2.57511 11.484H2.96588L2.59903 13.0192C2.51928 13.3542 2.37573 13.6014 2.17237 13.7689C1.969 13.9363 1.69785 14.0161 1.36689 14.0161C1.03593 14.0161 0.80864 13.9324 0.685027 13.7689C0.561414 13.6054 0.541477 13.3542 0.621227 13.0192L0.988077 11.484ZM20.6305 3.8958C21.7391 3.8958 22.8476 3.87586 23.9561 3.90776C23.98 3.90776 24.004 3.91175 24.0279 3.91175C24.307 3.91175 24.5343 3.69642 24.5543 3.42128C24.8134 2.43238 25.0926 1.44747 25.3358 0.454576C25.3438 0.199375 25.5511 0 25.8023 0C25.8382 0 25.8701 0.00398751 25.906 0.0119625C26.0894 0.023925 26.2729 0.0319001 26.4603 0.0319001C26.6397 0.0319001 26.8231 0.023925 27.0026 0.0119625C27.2977 -0.00398751 27.3654 0.0837377 27.2817 0.374826C26.863 1.85818 26.4643 3.34951 26.0575 4.83286C25.6668 6.26437 25.268 7.69589 24.8892 9.13139C24.8812 9.43046 24.638 9.66971 24.3389 9.66971C24.2951 9.66971 24.2512 9.66572 24.2073 9.65376C24.0239 9.63781 23.8405 9.62983 23.6571 9.62983C23.4896 9.62983 23.3221 9.63781 23.1546 9.64977C22.8715 9.66173 22.8277 9.57002 22.9034 9.30286C23.2065 8.2661 23.4776 7.22536 23.7767 6.18462C23.8644 5.88157 23.8245 5.75796 23.4657 5.76195C21.2087 5.7779 18.9478 5.7779 16.6909 5.76594C16.667 5.76195 16.643 5.76195 16.6191 5.76195C16.3719 5.76195 16.1685 5.95335 16.1566 6.20057C15.8934 7.2453 15.5863 8.28205 15.3112 9.32279C15.2953 9.51021 15.1358 9.65774 14.9444 9.65774C14.9204 9.65774 14.8965 9.65376 14.8726 9.64977C14.6812 9.63781 14.4818 9.63382 14.2904 9.63382C14.091 9.63382 13.8917 9.64179 13.6963 9.65376C13.2856 9.68167 13.3533 9.47033 13.4251 9.21513C13.8677 7.60817 14.3103 5.99721 14.749 4.39025C15.1198 3.03848 15.4906 1.68672 15.8535 0.334951C15.8655 0.151525 16.017 0.00797502 16.2004 0.00797502C16.2164 0.00797502 16.2363 0.00797502 16.2523 0.0119625C16.6709 0.0319001 17.0936 0.0319001 17.5123 0.0119625C17.8034 0 17.8353 0.107663 17.7635 0.362863C17.4645 1.42753 17.1893 2.50017 16.8823 3.56483C16.7985 3.84794 16.8703 3.90377 17.1375 3.89978C18.3018 3.88782 19.4662 3.8958 20.6305 3.8958ZM29.6104 0.0438626C29.75 0.0438626 29.8895 0.0438626 30.0291 0.0438626C30.5874 0.0438626 30.5913 0.0438626 30.4478 0.558251C29.6662 3.38938 28.8847 6.2245 28.0991 9.05563C27.9237 9.68964 27.9157 9.68964 27.2658 9.68964C26.9587 9.68964 26.6477 9.68167 26.3407 9.69363C26.0655 9.70559 26.0097 9.61388 26.0855 9.34273C26.8311 6.68705 27.5648 4.02738 28.2985 1.36772C28.3902 1.08859 28.466 0.805477 28.5218 0.518376C28.5218 0.510401 28.5218 0.506413 28.5218 0.498438C28.5218 0.231275 28.7371 0.0199375 29.0043 0.0199375C29.0522 0.0199375 29.104 0.0279126 29.1479 0.0438626C29.2316 0.0518376 29.3193 0.0518376 29.407 0.0518376C29.4708 0.0478501 29.5426 0.0478501 29.6104 0.0438626ZM40.4086 5.21965C40.0856 5.50675 39.7626 5.78587 39.4476 6.07696C38.2394 7.18948 37.0391 8.30199 35.8349 9.41849C35.6355 9.60591 35.5319 9.63781 35.3763 9.36267C34.4871 7.80355 33.582 6.2564 32.6808 4.70526C32.6529 4.66538 32.617 4.62551 32.5811 4.59361C32.4455 4.76507 32.3578 4.97641 32.3379 5.19572C31.9591 6.5435 31.5922 7.89527 31.2333 9.25102C31.2254 9.48229 31.0379 9.66572 30.8067 9.66572C30.7787 9.66572 30.7508 9.66173 30.7229 9.65774C30.3202 9.62584 29.9095 9.64578 29.5027 9.65376C29.3153 9.65774 29.2117 9.62983 29.2794 9.39058C30.1248 6.34014 30.9662 3.28571 31.8035 0.231275C31.8235 0.199375 31.8474 0.167475 31.8753 0.139563C32.0388 0.287101 32.1704 0.466538 32.2621 0.665914C33.4025 2.56397 34.539 4.46202 35.6754 6.36406C35.9306 6.79073 35.9226 6.78275 36.3054 6.45578C38.363 4.70127 40.4205 2.94677 42.4861 1.20024C42.9008 0.849339 43.3115 0.494451 43.7621 0.11165C43.77 0.1595 43.774 0.211338 43.774 0.263176C43.774 0.418688 43.7342 0.574201 43.6624 0.709776C42.8808 3.57679 42.0873 6.43983 41.3098 9.30684C41.2978 9.51021 41.1263 9.66971 40.923 9.66971C40.899 9.66971 40.8751 9.66572 40.8552 9.66173C40.6558 9.64977 40.4524 9.64578 40.2531 9.64578C40.0617 9.64578 39.8663 9.64977 39.6749 9.66173C39.3399 9.68167 39.312 9.55806 39.3958 9.26697C39.7506 8.01489 40.0896 6.75484 40.4325 5.49877C40.4524 5.46289 40.4644 5.42301 40.4644 5.38314C40.4644 5.31535 40.4445 5.25952 40.4086 5.21965ZM47.4984 13.9523L48.0885 11.484H49.4323L49.3486 11.823H48.3956L48.248 12.441H49.201L49.1173 12.7919H48.1643L47.9729 13.5894H48.9259L48.8422 13.9483H47.4984V13.9523ZM47.4625 12.0821C47.3748 11.9864 47.2751 11.9147 47.1634 11.8668C47.0518 11.819 46.9282 11.795 46.7926 11.795C46.5294 11.795 46.2941 11.8828 46.0868 12.0542C45.8794 12.2297 45.7439 12.453 45.6801 12.7281C45.6163 12.9953 45.6442 13.2146 45.7638 13.3861C45.8834 13.5575 46.0629 13.6453 46.3101 13.6453C46.4536 13.6453 46.5932 13.6213 46.7368 13.5655C46.8763 13.5137 47.0199 13.4339 47.1634 13.3302L47.0558 13.7848C46.9321 13.8646 46.8045 13.9204 46.669 13.9603C46.5374 14.0001 46.3978 14.0161 46.2543 14.0161C46.0708 14.0161 45.9074 13.9842 45.7678 13.9244C45.6282 13.8646 45.5126 13.7729 45.4209 13.6492C45.3332 13.5336 45.2733 13.394 45.2494 13.2345C45.2255 13.075 45.2335 12.9036 45.2773 12.7201C45.3212 12.5407 45.393 12.3692 45.4927 12.2097C45.5923 12.0502 45.7199 11.9107 45.8675 11.7911C46.015 11.6714 46.1745 11.5757 46.346 11.5159C46.5135 11.4521 46.6889 11.4242 46.8683 11.4242C47.0119 11.4242 47.1395 11.4441 47.2591 11.488C47.3787 11.5319 47.4864 11.5957 47.5861 11.6794L47.4625 12.0821ZM44.5038 13.9523L44.3841 13.3183H43.4311L43.0005 13.9523H42.5897L44.3682 11.3843L44.9185 13.9523H44.5038ZM43.6544 12.9833H44.3243L44.2127 12.4211C44.2087 12.3852 44.2007 12.3453 44.1967 12.2975C44.1927 12.2496 44.1887 12.1978 44.1887 12.142C44.1608 12.1938 44.1369 12.2456 44.109 12.2935C44.0851 12.3413 44.0572 12.3812 44.0332 12.4211L43.6544 12.9833ZM41.2699 13.9523L41.86 11.484H43.2038L43.1241 11.823H42.1711L42.0235 12.437H42.9765L42.8928 12.7879H41.9398L41.6607 13.9483H41.2699V13.9523ZM40.0138 12.8478L39.7506 13.9523H39.3838L39.9739 11.484H40.5202C40.6797 11.484 40.8033 11.496 40.8831 11.5159C40.9668 11.5359 41.0346 11.5717 41.0825 11.6236C41.1423 11.6834 41.1822 11.7592 41.1981 11.8549C41.2141 11.9506 41.2101 12.0542 41.1861 12.1659C41.1383 12.3653 41.0546 12.5168 40.9349 12.6324C40.8153 12.7441 40.6598 12.8119 40.4724 12.8318L41.0306 13.9563H40.588L40.0537 12.8517H40.0138V12.8478ZM40.1135 12.5367H40.1853C40.3926 12.5367 40.5362 12.5128 40.6159 12.461C40.6957 12.4131 40.7515 12.3254 40.7794 12.1978C40.8113 12.0622 40.7994 11.9665 40.7395 11.9107C40.6797 11.8549 40.5521 11.8269 40.3567 11.8269H40.285L40.1135 12.5367ZM37.5934 13.9523L38.1836 11.484H39.5273L39.4436 11.823H38.4906L38.3431 12.441H39.2961L39.2123 12.7919H38.2593L38.0679 13.5894H39.0209L38.9332 13.9483H37.5934V13.9523ZM37.1667 11.823L36.6563 13.9523H36.2656L36.776 11.823H36.138L36.2177 11.484H37.8845L37.8047 11.823H37.1667ZM33.1752 13.9523L33.7893 11.3843L34.9577 12.8956C34.9896 12.9395 35.0215 12.9833 35.0494 13.0312C35.0813 13.079 35.1132 13.1349 35.1451 13.1947L35.5558 11.484H35.9186L35.3046 14.048L34.1123 12.5128C34.0804 12.4729 34.0525 12.4291 34.0246 12.3812C33.9967 12.3334 33.9727 12.2855 33.9488 12.2377L33.5381 13.9523H33.1752ZM32.2222 13.9523L32.8124 11.484H33.2032L32.613 13.9523H32.2222ZM29.3353 13.4578L29.6822 13.3103C29.6862 13.422 29.7181 13.5057 29.7859 13.5615C29.8497 13.6173 29.9454 13.6492 30.069 13.6492C30.1846 13.6492 30.2843 13.6173 30.368 13.5496C30.4518 13.4818 30.5076 13.394 30.5355 13.2824C30.5714 13.1388 30.4837 13.0073 30.2763 12.8956C30.2484 12.8797 30.2245 12.8677 30.2085 12.8597C29.9733 12.7281 29.8257 12.6085 29.7659 12.5008C29.7021 12.3932 29.6902 12.2616 29.73 12.1061C29.7779 11.9067 29.8855 11.7432 30.045 11.6196C30.2085 11.496 30.3959 11.4322 30.6153 11.4322C30.7907 11.4322 30.9343 11.4681 31.0339 11.5398C31.1376 11.6116 31.1935 11.7113 31.2094 11.8429L30.8665 12.0064C30.8386 11.9266 30.7987 11.8708 30.7468 11.8349C30.699 11.799 30.6352 11.7831 30.5634 11.7831C30.4597 11.7831 30.368 11.811 30.2923 11.8668C30.2165 11.9226 30.1687 11.9984 30.1447 12.0941C30.1088 12.2416 30.2125 12.3812 30.4518 12.5088C30.4717 12.5208 30.4837 12.5248 30.4956 12.5327C30.707 12.6444 30.8425 12.756 30.9063 12.8637C30.9701 12.9714 30.9821 13.1069 30.9422 13.2664C30.8864 13.5017 30.7708 13.6851 30.5953 13.8247C30.4199 13.9603 30.2085 14.032 29.9653 14.032C29.7619 14.032 29.6024 13.9842 29.4948 13.8885C29.3871 13.7768 29.3313 13.6373 29.3353 13.4578ZM28.9285 11.823L28.4181 13.9523H28.0274L28.5378 11.823H27.8998L27.9795 11.484H29.6463L29.5665 11.823H28.9285ZM24.941 13.9523L25.5551 11.3843L26.7235 12.8956C26.7554 12.9395 26.7873 12.9833 26.8192 13.0312C26.8511 13.079 26.883 13.1349 26.9149 13.1947L27.3256 11.484H27.6884L27.0744 14.048L25.8821 12.5128C25.8502 12.4729 25.8183 12.4291 25.7944 12.3812C25.7665 12.3334 25.7425 12.2855 25.7186 12.2377L25.3079 13.9523H24.941ZM23.1467 13.9523L23.7368 11.484H25.0806L25.0009 11.823H24.0478L23.9003 12.441H24.8533L24.7696 12.7919H23.8166L23.6252 13.5894H24.5782L24.4905 13.9483H23.1467V13.9523ZM22.4967 12.7321C22.4967 12.7122 22.5007 12.6603 22.5126 12.5726C22.5206 12.5008 22.5286 12.441 22.5326 12.3932C22.5087 12.449 22.4807 12.5048 22.4488 12.5606C22.4169 12.6165 22.3811 12.6763 22.3412 12.7321L21.3961 14.048L21.0891 12.7042C21.0771 12.6484 21.0652 12.5965 21.0612 12.5447C21.0532 12.4929 21.0492 12.441 21.0492 12.3932C21.0373 12.445 21.0173 12.4968 20.9974 12.5567C20.9775 12.6125 20.9535 12.6723 20.9216 12.7361L20.3714 13.9523H20.0125L21.1968 11.3803L21.5357 12.9395C21.5397 12.9634 21.5477 13.0033 21.5556 13.0631C21.5636 13.1189 21.5756 13.1907 21.5875 13.2744C21.6274 13.2026 21.6832 13.1149 21.759 13.0033C21.7789 12.9754 21.7949 12.9514 21.8029 12.9355L22.8675 11.3803L22.8316 13.9523H22.4728L22.4967 12.7321ZM18.7684 13.9523L19.0395 12.8238L18.5491 11.484H18.9598L19.2628 12.3214C19.2708 12.3413 19.2788 12.3692 19.2868 12.4051C19.2947 12.441 19.3067 12.4769 19.3147 12.5168C19.3386 12.4769 19.3625 12.441 19.3904 12.4051C19.4144 12.3692 19.4423 12.3373 19.4662 12.3094L20.18 11.484H20.5707L19.4223 12.8238L19.1512 13.9523H18.7684ZM17.7954 13.9523L17.6758 13.3183H16.7228L16.2921 13.9523H15.8814L17.6598 11.3843L18.2101 13.9523H17.7954ZM16.9461 12.9833H17.616L17.5043 12.4211C17.5003 12.3852 17.4924 12.3453 17.4884 12.2975C17.4844 12.2496 17.4804 12.1978 17.4804 12.142C17.4525 12.1938 17.4286 12.2456 17.4007 12.2935C17.3727 12.3413 17.3488 12.3812 17.3249 12.4211L16.9461 12.9833ZM15.2315 12.8438L14.9643 13.9523H14.5974L15.1876 11.484H15.7777C15.9532 11.484 16.0808 11.492 16.1566 11.5119C16.2323 11.5319 16.3001 11.5638 16.348 11.6076C16.4078 11.6635 16.4516 11.7432 16.4716 11.8389C16.4915 11.9346 16.4875 12.0423 16.4596 12.1579C16.4317 12.2735 16.3838 12.3812 16.3161 12.4809C16.2483 12.5806 16.1725 12.6563 16.0848 12.7122C16.013 12.756 15.9333 12.7879 15.8455 12.8079C15.7578 12.8278 15.6262 12.8358 15.4508 12.8358H15.2315V12.8438ZM15.3311 12.5168H15.4308C15.6462 12.5168 15.7977 12.4929 15.8814 12.445C15.9652 12.3972 16.021 12.3134 16.0529 12.1898C16.0848 12.0582 16.0688 11.9665 16.005 11.9107C15.9412 11.8588 15.8057 11.8309 15.5983 11.8309H15.4986L15.3311 12.5168ZM11.0924 13.9523L11.6826 11.484H12.2089C12.5519 11.484 12.7871 11.5 12.9187 11.5359C13.0503 11.5717 13.158 11.6316 13.2417 11.7153C13.3533 11.823 13.4251 11.9665 13.457 12.134C13.4889 12.3054 13.477 12.5008 13.4251 12.7201C13.3733 12.9395 13.2895 13.1349 13.1779 13.3023C13.0662 13.4698 12.9267 13.6134 12.7632 13.721C12.6396 13.8048 12.504 13.8646 12.3605 13.9005C12.2169 13.9363 12.0056 13.9523 11.7224 13.9523H11.0924ZM11.5709 13.5894H11.8979C12.0773 13.5894 12.2169 13.5775 12.3126 13.5535C12.4083 13.5296 12.496 13.4858 12.5798 13.4299C12.6914 13.3502 12.7831 13.2505 12.8549 13.1349C12.9307 13.0152 12.9865 12.8797 13.0224 12.7201C13.0583 12.5606 13.0702 12.4251 13.0543 12.3054C13.0383 12.1858 12.9945 12.0861 12.9227 12.0064C12.8669 11.9466 12.7991 11.9067 12.7074 11.8828C12.6196 11.8588 12.4721 11.8469 12.2727 11.8469H11.9856L11.5709 13.5894ZM9.30203 13.9523L9.89218 11.484H11.236L11.1562 11.823H10.2032L10.0557 12.441H11.0087L10.9249 12.7919H9.97193L9.78053 13.5894H10.7335L10.6458 13.9483H9.30203V13.9523ZM8.34902 13.9523L8.93917 11.484H9.32994L8.73979 13.9523H8.34902ZM6.57458 13.9523L7.16473 11.484H8.50852L8.42877 11.823H7.47575L7.32822 12.437H8.28123L8.19749 12.7879H7.24448L6.96535 13.9483H6.57458V13.9523ZM5.62156 13.9523L6.21171 11.484H6.60249L6.01234 13.9523H5.62156ZM2.91006 13.9523L3.52413 11.3843L4.69247 12.8956C4.72437 12.9395 4.75627 12.9833 4.78817 13.0312C4.82007 13.079 4.85197 13.1349 4.88387 13.1947L5.29459 11.484H5.65745L5.04337 14.048L3.85111 12.5128C3.81921 12.4729 3.7913 12.4291 3.76338 12.3812C3.73547 12.3334 3.71155 12.2855 3.68762 12.2377L3.27691 13.9523H2.91006ZM4.9078 1.89805C7.05706 1.92597 9.19836 1.89407 11.3436 1.89407C11.7224 1.89407 12.0295 2.2011 12.0295 2.57992C12.0295 2.67562 12.0096 2.77132 11.9697 2.86303C11.862 3.46116 11.3396 3.89978 10.7296 3.89978C8.60821 3.8958 6.48286 3.8958 4.35752 3.90776C4.00662 3.90776 3.99466 3.7682 4.08238 3.49704C4.22195 3.09829 4.33758 2.69556 4.42531 2.28484C4.4293 2.06553 4.60873 1.89407 4.82805 1.89407C4.85596 1.89008 4.87989 1.89407 4.9078 1.89805ZM3.73547 5.76992C5.86879 5.76992 8.00609 5.77391 10.1434 5.78189C10.8771 5.78587 11.1682 6.45976 10.7375 7.15359C10.5063 7.54437 10.0876 7.78362 9.633 7.78362C7.53955 7.78362 5.4501 7.75969 3.35666 7.7876C3.03367 7.79159 2.88214 7.74773 3.01373 7.3729C3.16127 6.95421 3.26494 6.5116 3.37261 6.08095C3.40052 5.90151 3.55603 5.76992 3.73547 5.76992Z" fill="#66686C"/>
</svg>
