<svg width="42" height="32" viewBox="0 0 42 32" fill="none" xmlns="http://www.w3.org/2000/svg">
<path d="M2.15082 0.25H33.5079C34.6863 0.25 35.6538 1.21821 35.6538 2.39577V21.9686C35.6538 23.1468 34.6862 24.1145 33.5079 24.1145H2.15082C0.970881 24.1145 0.00488281 23.1485 0.00488281 21.9686V2.39577C0.00488281 1.2178 0.973014 0.25 2.15082 0.25Z" fill="#3B95D9"/>
<path fill-rule="evenodd" clip-rule="evenodd" d="M2.15046 0.878906H33.5077C34.3416 0.878906 35.0239 1.56436 35.0239 2.39517V21.968C35.0239 22.7988 34.3385 23.4842 33.5077 23.4842H2.15046C1.31965 23.4842 0.634277 22.802 0.634277 21.968V2.39517C0.634277 1.56124 1.31653 0.878906 2.15046 0.878906Z" fill="#42A6F1"/>
<path fill-rule="evenodd" clip-rule="evenodd" d="M0 4.85968H35.6582V10.9965H0V4.85968Z" fill="#4D5471"/>
<path d="M8.49701 8.00195H39.8538C40.4442 8.00195 40.9807 8.24378 41.369 8.63212L41.4076 8.67436C41.774 9.06073 41.9997 9.58089 41.9997 10.1477V29.7205C41.9997 30.8988 41.0321 31.8664 39.8538 31.8664H8.49701C7.31715 31.8664 6.35107 30.9004 6.35107 29.7205V10.1477C6.35107 9.55981 6.59216 9.02414 6.98099 8.63433L6.98501 8.63039C7.37458 8.24255 7.90975 8.00195 8.49701 8.00195Z" fill="#D54C3D"/>
<path fill-rule="evenodd" clip-rule="evenodd" d="M8.49722 8.63086H39.854C40.688 8.63086 41.3703 9.31631 41.3703 10.1471V29.7199C41.3703 30.5507 40.6848 31.2362 39.854 31.2362H8.49722C7.66641 31.2362 6.98096 30.5539 6.98096 29.7199V10.1471C6.98096 9.31311 7.66321 8.63086 8.49722 8.63086Z" fill="#ED5444"/>
<path d="M10.3699 23.5336C10.1886 23.5336 10.0148 23.4616 9.88668 23.3334C9.75852 23.2053 9.68652 23.0315 9.68652 22.8502C9.68652 22.669 9.75852 22.4952 9.88668 22.367C10.0148 22.2389 10.1886 22.1669 10.3699 22.1669H24.1322C24.3135 22.1669 24.4873 22.2389 24.6154 22.367C24.7436 22.4952 24.8156 22.669 24.8156 22.8502C24.8156 23.0315 24.7436 23.2053 24.6154 23.3334C24.4873 23.4616 24.3135 23.5336 24.1322 23.5336H10.3699ZM30.243 21.3685C31.2629 21.3685 32.1678 21.8602 32.7337 22.6198C33.2997 21.8602 34.2047 21.3685 35.2247 21.3685C36.9392 21.3685 38.3292 22.7584 38.3292 24.4729C38.3292 26.1875 36.9392 27.5774 35.2247 27.5774C34.2047 27.5774 33.2997 27.0855 32.7337 26.3259C32.1678 27.0855 31.2629 27.5774 30.243 27.5774C28.5283 27.5774 27.1384 26.1875 27.1384 24.4729C27.1384 22.7584 28.5283 21.3685 30.243 21.3685ZM10.3699 26.7792C10.1899 26.7772 10.018 26.7043 9.89149 26.5764C9.76495 26.4484 9.69397 26.2757 9.69397 26.0958C9.69397 25.9158 9.76495 25.7432 9.89149 25.6152C10.018 25.4873 10.1899 25.4144 10.3699 25.4124H20.7476C20.9265 25.4158 21.0971 25.4893 21.2224 25.6171C21.3478 25.7449 21.4181 25.9168 21.4181 26.0958C21.4181 26.2748 21.3478 26.4467 21.2224 26.5745C21.0971 26.7023 20.9265 26.7758 20.7476 26.7792H10.3699Z" fill="#F8D14A"/>
<path fill-rule="evenodd" clip-rule="evenodd" d="M11.4521 12.8532H16.1208C16.7162 12.8532 17.2034 13.3404 17.2034 13.9358V14.1723H10.3696V13.9358C10.3696 13.3404 10.8567 12.8532 11.4521 12.8532ZM17.2034 14.5448V16.8526H15.0834V14.5448H17.2034ZM14.711 16.8526H12.8597V14.5448H14.711V16.8526ZM12.4872 16.8526H10.3696V14.5448H12.4872V16.8526ZM17.2034 17.2251V17.4653C17.2034 18.0606 16.7161 18.5478 16.1208 18.5478H11.4521C10.8568 18.5478 10.3696 18.0607 10.3696 17.4653V17.2251H17.2034Z" fill="#DACD71"/>
</svg>
