<svg width="25" height="25" viewBox="0 0 25 25" fill="none" xmlns="http://www.w3.org/2000/svg">
<g clip-path="url(#clip0_191_29)">
<path d="M1.07241 13.258C1.05147 12.6583 1.36913 12.0844 1.92081 11.765L20.9431 0.969511C21.5685 0.609968 22.3594 0.694916 22.865 1.20258C23.408 1.70894 23.5466 2.45456 23.2328 3.14093L13.7531 22.8713C13.4743 23.4814 12.8864 23.8396 12.2105 23.8257C11.5721 23.8105 10.9955 23.4179 10.7122 22.8274L8.18057 16.9497L2.14056 14.8342C1.53308 14.6302 1.1012 14.0825 1.04016 13.4092C1.1125 13.3316 1.07371 13.2955 1.07241 13.258ZM21.6714 2.48252L2.83383 13.1965L9.14011 15.4152C9.36759 15.4823 9.56152 15.6632 9.64432 15.8854L12.2989 22.059L21.6714 2.48252Z" fill="white"/>
</g>
<defs>
<clipPath id="clip0_191_29">
<rect width="24" height="24" fill="white" transform="translate(23.9854) rotate(88)"/>
</clipPath>
</defs>
</svg>
