<svg width="43" height="42" viewBox="0 0 43 42" fill="none" xmlns="http://www.w3.org/2000/svg">
<path d="M21.2817 42C32.8797 42 42.2817 32.598 42.2817 21C42.2817 9.40202 32.8797 0 21.2817 0C9.68376 0 0.281738 9.40202 0.281738 21C0.281738 32.598 9.68376 42 21.2817 42Z" fill="#3C5A9A"/>
<path d="M28.1101 6.44553H23.4581C20.6975 6.44553 17.6268 7.60662 17.6268 11.6083C17.6403 13.0027 17.6268 14.338 17.6268 15.8409H14.4331V20.923H17.7256V35.5537H23.7759V20.8265H27.7692L28.1305 15.8266H23.6716C23.6716 15.8266 23.6816 13.6025 23.6716 12.9566C23.6716 11.3752 25.3171 11.4658 25.4161 11.4658C26.1991 11.4658 27.7216 11.4681 28.1124 11.4658V6.44553H28.1101Z" fill="white"/>
</svg>
