<svg width="48" height="48" viewBox="0 0 48 48" fill="none" xmlns="http://www.w3.org/2000/svg">
<path d="M24.1247 47.4995C37.1723 47.4995 47.7495 36.9223 47.7495 23.8747C47.7495 10.8272 37.1723 0.25 24.1247 0.25C11.0772 0.25 0.5 10.8272 0.5 23.8747C0.5 36.9223 11.0772 47.4995 24.1247 47.4995Z" fill="white"/>
<path d="M24.1252 47.4996C19.7339 47.5064 15.4295 46.2845 11.6973 43.971L27.5234 0.492676C30.3243 0.895422 33.0314 1.8016 35.5096 3.16774C46.9467 9.44234 51.1344 23.7993 44.8598 35.2387C40.7087 42.8085 32.7591 47.5087 24.1252 47.4996Z" fill="#4285F4"/>
<path d="M16.1106 23.7729C16.1175 23.3747 16.0763 22.9766 15.9893 22.5898H10.5522V24.7386H13.7445C13.6232 25.5006 13.1953 26.1779 12.5614 26.6173L12.55 26.6882L14.2685 28.0201L14.3875 28.0315C15.479 27.0223 16.1106 25.5372 16.1106 23.7729Z" fill="#4285F4"/>
<path d="M10.5525 29.434C12.1154 29.434 13.4289 28.9192 14.3877 28.0313L12.5616 26.6148C11.969 27.013 11.2664 27.2144 10.5548 27.1938C9.05363 27.1846 7.7264 26.2144 7.25958 24.7864L7.19093 24.7933L5.40374 26.1755L5.38086 26.2395C6.36027 28.2006 8.36256 29.4363 10.5525 29.434Z" fill="#34A853"/>
<path d="M7.25746 24.7876C7.13161 24.4192 7.06525 24.0325 7.06525 23.6412C7.06753 23.2521 7.13161 22.8654 7.25289 22.4947L7.2506 22.4192L5.44053 21.0142L5.38103 21.0416C4.55723 22.6778 4.55723 24.6046 5.38103 26.2407L7.25746 24.7876Z" fill="#FBBC05"/>
<path d="M10.5527 20.0931C11.3833 20.0794 12.1843 20.3883 12.7907 20.9558L14.4245 19.3609C13.3765 18.3769 11.9875 17.8391 10.5504 17.8551C8.36045 17.8551 6.35816 19.0886 5.37646 21.0474L7.24832 22.5005C7.71972 21.0725 9.04924 20.1023 10.5527 20.0931Z" fill="#EB4335"/>
<path d="M25.2254 24.2848V28.493H23.8799V18.0971H27.4474C28.3055 18.0788 29.1385 18.4015 29.7586 18.9964C30.9737 20.1154 31.0515 22.0102 29.9302 23.2253C29.8753 23.2848 29.8181 23.342 29.7586 23.3969C29.1362 23.9873 28.3055 24.3054 27.4474 24.2825L25.2254 24.2848ZM25.2254 19.3763V23.0056H27.4794C27.9783 23.0216 28.4611 22.8271 28.8089 22.4678C29.5115 21.7928 29.5321 20.6784 28.857 19.9758C28.8524 19.9713 28.8478 19.9667 28.8433 19.9621C28.8318 19.9507 28.8204 19.9369 28.8089 19.9278C28.4634 19.5616 27.9806 19.3626 27.4794 19.3763H25.2254ZM33.8204 21.1475C34.8158 21.1475 35.6007 21.4106 36.1751 21.9392C36.7495 22.4655 37.0378 23.1886 37.0378 24.1086V28.493H35.7517V27.5044H35.6945C35.1385 28.3168 34.3971 28.7241 33.4703 28.7241C32.7472 28.747 32.0401 28.4999 31.4909 28.0262C30.976 27.596 30.6831 26.9552 30.6945 26.2848C30.6716 25.5983 30.9852 24.9415 31.5343 24.5296C32.095 24.0948 32.8433 23.8774 33.7792 23.8774C34.4634 23.8523 35.143 24.001 35.7517 24.3122V24.0056C35.754 23.5479 35.5504 23.1131 35.1957 22.8248C34.8387 22.5067 34.3765 22.3328 33.8982 22.3397C33.1797 22.3237 32.5046 22.6806 32.1156 23.2825L30.9325 22.5411C31.5778 21.612 32.5412 21.1475 33.8204 21.1475ZM32.079 26.3145C32.0767 26.66 32.2437 26.985 32.5229 27.1864C32.8204 27.4198 33.1911 27.5411 33.5687 27.5342C34.1362 27.5342 34.6785 27.3099 35.0813 26.9095C35.5046 26.5411 35.7495 26.0056 35.7495 25.4427C35.3284 25.1108 34.7449 24.9438 33.9943 24.9438C33.5092 24.9255 33.0286 25.0628 32.6282 25.3351C32.2918 25.5502 32.0858 25.9163 32.079 26.3145ZM44.4222 21.3809L39.9325 31.628H38.5435L40.2094 28.0422L37.2552 21.3786H38.7174L40.8524 26.4884H40.8822L42.9577 21.3786L44.4222 21.3809Z" fill="white"/>
</svg>
