<svg width="51" height="16" viewBox="0 0 51 16" fill="none" xmlns="http://www.w3.org/2000/svg">
<path d="M50.5754 4.89486C50.1175 3.59054 48.8745 2.65421 47.4189 2.65421H47.3862C46.4376 2.65421 45.583 3.05082 44.9738 3.68458C44.3646 3.05082 43.51 2.65421 42.5614 2.65421H42.5328C41.6987 2.65421 40.9341 2.96086 40.3494 3.46379V3.21028C40.3289 2.95269 40.1204 2.75234 39.8587 2.75234H37.6181C37.3441 2.75234 37.1233 2.97313 37.1233 3.24708V15.4071C37.1233 15.6811 37.3441 15.9019 37.6181 15.9019H39.8587C40.1081 15.9019 40.3167 15.7138 40.3453 15.4766V6.74708C40.3453 6.71437 40.3453 6.68984 40.3494 6.66122C40.3862 6.27278 40.6724 5.94977 41.1222 5.91297H41.5351C41.7232 5.92932 41.8827 5.99474 42.0053 6.09696C42.2016 6.25234 42.3079 6.48949 42.3079 6.75117L42.3161 15.4357C42.3161 15.7097 42.5369 15.9346 42.8108 15.9346H45.0515C45.3173 15.9346 45.5299 15.7261 45.5421 15.4644V6.74299C45.5421 6.45678 45.673 6.19509 45.906 6.04381C46.0205 5.97021 46.1595 5.92115 46.319 5.90479H46.732C47.2185 5.94568 47.5088 6.31367 47.5088 6.74299L47.517 15.4194C47.517 15.6933 47.7378 15.9141 48.0118 15.9141H50.2524C50.5141 15.9141 50.7308 15.7097 50.7472 15.4521V5.9375C50.7349 5.40187 50.6654 5.15245 50.5754 4.89486ZM35.4142 2.78505H34.1344V0.707944C34.1344 0.703855 34.1344 0.703855 34.1344 0.699766C34.1344 0.454439 33.9341 0.25 33.6806 0.25C33.652 0.25 33.6233 0.254089 33.5947 0.258178C32.1759 0.646612 32.458 2.61332 29.8657 2.78096H29.6163C29.5795 2.78096 29.5427 2.78505 29.5059 2.79322C29.2892 2.84638 29.1216 3.04264 29.1216 3.27979V5.52044C29.1216 5.79439 29.3424 6.01519 29.6163 6.01519H30.9656L30.9615 15.5093C30.9615 15.7792 31.1823 16 31.4522 16H33.6683C33.9382 16 34.159 15.7792 34.159 15.5093V6.01519H35.4142C35.6841 6.01519 35.909 5.7903 35.909 5.52044V3.27979C35.909 3.00584 35.6882 2.78505 35.4142 2.78505Z" fill="#00BAF2"/>
<path d="M27.3592 2.78564H25.1186C24.8487 2.78564 24.6238 3.00644 24.6238 3.28039V7.91298C24.6197 8.19919 24.3867 8.42817 24.1005 8.42817H23.1641C22.8738 8.42817 22.6367 8.19511 22.6367 7.9048L22.6285 3.28039C22.6285 3.00644 22.4077 2.78564 22.1338 2.78564H19.8931C19.6192 2.78564 19.3984 3.00644 19.3984 3.28039V8.35457C19.3984 10.2804 20.7722 11.6583 22.7021 11.6583C22.7021 11.6583 24.1495 11.6583 24.1945 11.6665C24.4562 11.6951 24.6565 11.9159 24.6565 12.1858C24.6565 12.4515 24.4603 12.6723 24.1986 12.705C24.1863 12.705 24.1741 12.7091 24.1618 12.7132L20.8867 12.7255C20.6127 12.7255 20.3919 12.9463 20.3919 13.2202V15.4568C20.3919 15.7307 20.6127 15.9515 20.8867 15.9515H24.5461C26.4761 15.9515 27.8499 14.5777 27.8499 12.6519V3.28039C27.854 3.00644 27.6332 2.78564 27.3592 2.78564ZM14.6186 2.79791H11.5111C11.2372 2.79791 11.0123 3.00644 11.0123 3.25994V4.13085C11.0123 4.13494 11.0123 4.14312 11.0123 4.14721C11.0123 4.15539 11.0123 4.15948 11.0123 4.16765V5.36158C11.0123 5.63144 11.2494 5.85632 11.5397 5.85632H14.5C14.7331 5.89312 14.9171 6.06485 14.9457 6.33062V6.62092C14.9211 6.87443 14.7372 7.05842 14.5123 7.07887H13.0485C11.0981 7.07887 9.71203 8.37501 9.71203 10.1904V12.795C9.71203 14.6022 10.906 15.8861 12.84 15.8861H16.9001C17.6279 15.8861 18.2208 15.3341 18.2208 14.6554V6.15889C18.2208 4.09814 17.1577 2.79791 14.6186 2.79791ZM14.9743 12.1449V12.4965C14.9743 12.5251 14.9702 12.5537 14.9661 12.5783C14.962 12.6028 14.9539 12.6273 14.9457 12.6519C14.8762 12.8481 14.6799 12.9912 14.4468 12.9912H13.5146C13.2243 12.9912 12.9872 12.7705 12.9872 12.4965V12.0754C12.9872 12.0713 12.9872 12.0631 12.9872 12.059V10.9346V10.583V10.5789C12.9872 10.309 13.2243 10.0882 13.5146 10.0882H14.4468C14.7372 10.0882 14.9743 10.309 14.9743 10.583V12.1449ZM5.88084 2.78156H0.986565C0.716706 2.78156 0.5 3.00235 0.5 3.26812V5.4638C0.5 5.46789 0.5 5.47198 0.5 5.47606C0.5 5.48833 0.5 5.49651 0.5 5.50469V15.4363C0.5 15.7062 0.70035 15.927 0.953855 15.9311H3.2354C3.50935 15.9311 3.73014 15.7103 3.73014 15.4363L3.73832 12.0345H5.88084C7.67173 12.0345 8.9229 10.7915 8.9229 8.98833V5.83179C8.9229 4.03272 7.67173 2.78156 5.88084 2.78156ZM5.68458 6.88669V8.2687C5.68458 8.55901 5.45152 8.79616 5.16122 8.79616H3.74241V6.02805H5.16122C5.45152 6.02805 5.68458 6.26111 5.68458 6.55141V6.88669Z" fill="#20336B"/>
</svg>
