<svg width="55" height="55" viewBox="0 0 55 55" fill="none" xmlns="http://www.w3.org/2000/svg">
<path d="M49.0685 33.0564C51.9301 20.9373 44.4256 8.79306 32.3065 5.93137C20.1875 3.06968 8.04324 10.5742 5.18155 22.6933C2.31986 34.8123 9.82442 46.9566 21.9434 49.8183C34.0625 52.68 46.2068 45.1754 49.0685 33.0564Z" fill="#5F259F"/>
<path d="M37.358 21.9902C37.358 21.1086 36.6025 20.3523 35.7209 20.3523H32.6974L25.7701 12.4168C25.1399 11.6613 24.1324 11.4092 23.1248 11.6613L20.7314 12.4168C20.3533 12.5428 20.2272 13.047 20.4793 13.2983L28.0374 20.4784H16.575C16.1968 20.4784 15.9448 20.7304 15.9448 21.1086V22.3676C15.9448 23.2499 16.7011 24.0054 17.5826 24.0054H19.3457V30.0518C19.3457 34.5863 21.7391 37.231 25.7702 37.231C27.0292 37.231 28.0376 37.105 29.2965 36.6016V40.6319C29.2965 41.7657 30.1788 42.648 31.3124 42.648H33.0756C33.4537 42.648 33.8311 42.2698 33.8311 41.8916V23.8793H36.7287C37.1067 23.8793 37.3581 23.6273 37.3581 23.2499V21.9902H37.358ZM29.2965 32.8224C28.541 33.2005 27.5334 33.3265 26.7779 33.3265C24.7619 33.3265 23.7543 32.319 23.7543 30.0517V24.0053H29.2965V32.8224Z" fill="white"/>
</svg>
