<svg width="43" height="42" viewBox="0 0 43 42" fill="none" xmlns="http://www.w3.org/2000/svg">
<path d="M21.5635 42C33.1615 42 42.5635 32.598 42.5635 21C42.5635 9.40202 33.1615 0 21.5635 0C9.9655 0 0.563477 9.40202 0.563477 21C0.563477 32.598 9.9655 42 21.5635 42Z" fill="#2DAAE1"/>
<path d="M35.0284 12.6468C34.0379 13.0863 32.974 13.3834 31.8554 13.517C32.997 12.8334 33.8716 11.7501 34.2845 10.4608C33.2001 11.1049 32.0132 11.5583 30.7756 11.8014C29.7684 10.7278 28.3321 10.0575 26.7431 10.0575C23.693 10.0575 21.2195 12.5301 21.2195 15.5819C21.2195 16.0143 21.2682 16.4362 21.3618 16.8412C16.7704 16.6105 12.6998 14.4111 9.97516 11.0692C9.49939 11.8854 9.22707 12.8344 9.22707 13.8469C9.22707 15.7632 10.2025 17.4541 11.6846 18.4445C10.8072 18.4174 9.94908 18.1805 9.18193 17.7539V17.8237C9.18193 20.5005 11.0859 22.7326 13.6133 23.2402C13.149 23.3675 12.6618 23.4339 12.1577 23.4339C11.8013 23.4339 11.4556 23.4002 11.1178 23.3367C11.8208 25.5307 13.861 27.1278 16.2778 27.1729C14.3871 28.655 12.0047 29.5385 9.41718 29.5385C8.97151 29.5385 8.53104 29.5119 8.09863 29.4598C10.5438 31.0277 13.4471 31.943 16.567 31.943C26.728 31.943 32.2851 23.525 32.2851 16.2249C32.2851 15.9852 32.2799 15.7473 32.2683 15.5103C33.351 14.7272 34.2856 13.7575 35.0284 12.6468Z" fill="white"/>
</svg>
