<svg width="42" height="42" viewBox="0 0 42 42" fill="none" xmlns="http://www.w3.org/2000/svg">
<path fill-rule="evenodd" clip-rule="evenodd" d="M20.9939 0C9.41698 0 0 9.41961 0 20.9998C0 25.5924 1.48106 29.8515 3.99876 33.3086L1.38214 41.1108L9.45389 38.5311C12.7738 40.7286 16.7356 42 21.0061 42C32.583 42 42 32.58 42 21.0002C42 9.41999 32.583 0.000347137 21.0061 0.000347137L20.9939 0ZM15.1312 10.667C14.724 9.69174 14.4154 9.65481 13.7986 9.62973C13.5885 9.61753 13.3544 9.60535 13.0949 9.60535C12.2924 9.60535 11.4533 9.83983 10.9472 10.3583C10.3303 10.9879 8.79972 12.4568 8.79972 15.4693C8.79972 18.4818 10.9966 21.3953 11.2927 21.8029C11.6013 22.2099 15.5757 28.4815 21.7466 31.0376C26.5723 33.0375 28.0043 32.8521 29.1026 32.6176C30.7069 32.272 32.7189 31.0863 33.225 29.6547C33.7311 28.2223 33.7311 27 33.5827 26.7408C33.4347 26.4816 33.0271 26.3338 32.4102 26.0248C31.7934 25.7161 28.7939 24.2346 28.2262 24.037C27.6706 23.8273 27.1401 23.9015 26.7207 24.4942C26.1282 25.3213 25.5483 26.161 25.0791 26.6669C24.7088 27.0621 24.1037 27.1115 23.598 26.9014C22.9191 26.6178 21.0187 25.9506 18.6734 23.8642C16.859 22.2472 15.6248 20.235 15.2671 19.6302C14.909 19.0131 15.2301 18.6546 15.5137 18.3215C15.8223 17.9386 16.1184 17.6671 16.427 17.309C16.7356 16.9511 16.9084 16.7658 17.1059 16.3459C17.316 15.9386 17.1675 15.5188 17.0195 15.2101C16.8715 14.9014 15.6374 11.8889 15.1312 10.667Z" fill="#67C15E"/>
</svg>
